<svg width="203" height="169" viewBox="0 0 203 169" fill="none" xmlns="http://www.w3.org/2000/svg">
<path d="M6.3 41L38.67 8.63V42.56L0 81.24V56.22C0 50.51 2.27 45.04 6.3 41Z" fill="white"/>
<path d="M163.83 119.91L202.5 81.24V105.79C202.5 111.79 200.12 117.55 195.88 121.79L163.83 153.84V137.07L132.1 168.8H70.4099L38.6799 137.07V82.16L101.25 144.74L163.83 82.16V119.91Z" fill="white"/>
<path d="M0 108.43V81.24L38.67 119.91V153.84L4.76 119.93C1.71 116.88 0 112.74 0 108.43Z" fill="white"/>
<path d="M202.5 56.22V81.24L163.83 42.56V79.98L101.25 17.4L38.6799 79.98V25.07L63.7499 0H138.76L163.83 25.07V8.63L196.2 41C200.24 45.04 202.5 50.51 202.5 56.22Z" fill="white"/>
</svg>
